# Rhino

mtllib airplane_white.mtl
g object_1
usemtl Default
v -12.4425163269043 19.27264404296875 0
v -8.83408260345459 3.734875679016113 1.979892253875732
v -5.225649356842041 -11.80289268493652 3.959784507751465
v -12.4425163269043 19.27264404296875 0
v -10.1067066192627 3.648099184036255 1.765817284584045
v -7.770898342132568 -11.9764461517334 3.531634569168091
v -11.37983131408691 3.582594156265259 1.551742434501648
v -10.31714630126953 -12.10745525360107 3.103484869003296
vt 0 0
vt 0 0.5
vt 0 1
vt 0.5 0
vt 0.5 0.5
vt 0.5 1
vt 1 0.5
vt 1 1
vn -0.2326992005109787 0.06956788152456284 0.9700574278831482
vn -0.2326992005109787 0.06956788152456284 0.9700574278831482
vn -0.2326992005109787 0.06956788152456284 0.9700574278831482
vn -0.1510152369737625 0.08869270235300064 0.984544575214386
vn -0.1510152369737625 0.08869270235300064 0.984544575214386
vn -0.1510152369737625 0.08869270235300064 0.984544575214386
vn -0.2291763871908188 0.08041637390851974 0.9700574278831482
vn -0.2291763871908188 0.08041637390851974 0.9700574278831482
f 5/5/5 2/2/2 1/1/1
f 6/6/6 3/3/3 2/2/2 5/5/5
f 7/7/7 5/5/5 4/4/4
f 8/8/8 6/6/6 5/5/5 7/7/7
g object_2
usemtl Default
v -12.4425163269043 19.27264404296875 0
v -16.05094909667969 3.734875679016113 1.979892253875732
v -19.65938186645508 -11.80289268493652 3.959784507751465
v -12.4425163269043 19.27264404296875 0
v -14.77832508087158 3.648099184036255 1.765817284584045
v -17.11413383483887 -11.9764461517334 3.531634569168091
v -13.50520133972168 3.582594156265259 1.551742434501648
v -14.56788539886475 -12.10745525360107 3.103484869003296
vt 0 0
vt 0 0.5
vt 0 1
vt 0.5 0
vt 0.5 0.5
vt 0.5 1
vt 1 0.5
vt 1 1
vn 0.2326992005109787 0.06956788152456284 0.9700574278831482
vn 0.2326992005109787 0.06956788152456284 0.9700574278831482
vn 0.2326992005109787 0.06956788152456284 0.9700574278831482
vn 0.1510152369737625 0.08869270235300064 0.984544575214386
vn 0.1510152369737625 0.08869270235300064 0.984544575214386
vn 0.1510152369737625 0.08869270235300064 0.984544575214386
vn 0.2291763871908188 0.08041637390851974 0.9700574278831482
vn 0.2291763871908188 0.08041637390851974 0.9700574278831482
f 13/13/13 9/9/9 10/10/10
f 14/14/14 13/13/13 10/10/10 11/11/11
f 15/15/15 12/12/12 13/13/13
f 16/16/16 15/15/15 13/13/13 14/14/14
g object_3
usemtl Default
v -12.4425163269043 19.27264404296875 0
v -12.4425163269043 1.81416642665863 -0.4751507937908173
v -12.4425163269043 -15.64431095123291 -0.9503015875816345
v -12.4425163269043 19.27264404296875 0
v -12.17684459686279 2.250850200653076 -0.006263201124966145
v -11.91117382049561 -14.7709436416626 -0.01252640224993229
v -12.4425163269043 19.27264404296875 0
v -11.91117382049561 2.693021059036255 0.5442599654197693
v -11.37983131408691 -13.88660144805908 1.088519930839539
v -12.4425163269043 19.27264404296875 0
v -11.6455020904541 3.137871503829956 1.091801047325134
v -10.84848880767822 -12.99690055847168 2.183602094650269
v -11.37983131408691 3.582594156265259 1.551742434501648
v -10.31714630126953 -12.10745525360107 3.103484869003296
vt 0 0
vt 0 0.5
vt 0 1
vt 0.25 0
vt 0.25 0.5
vt 0.25 1
vt 0.5 0
vt 0.5 0.5
vt 0.5 1
vt 0.75 0
vt 0.75 0.5
vt 0.75 1
vt 1 0.5
vt 1 1
vn 0.8250676989555359 0.01537229772657156 -0.5648247599601746
vn 0.8250676989555359 0.01537229772657156 -0.5648247599601746
vn 0.8250676989555359 0.01537229772657156 -0.5648247599601746
vn 0.8869626522064209 0.0140133136883378 -0.4616284966468811
vn 0.8869626522064209 0.0140133136883378 -0.4616284966468811
vn 0.8869626522064209 0.0140133136883378 -0.4616284966468811
vn 0.8998425006866455 0.01452638022601604 -0.4359729886054993
vn 0.8998425006866455 0.01452638022601604 -0.4359729886054993
vn 0.8998425006866455 0.01452638022601604 -0.4359729886054993
vn 0.8853447437286377 0.01228355336934328 -0.4647729098796844
vn 0.8853447437286377 0.01228355336934328 -0.4647729098796844
vn 0.8853447437286377 0.01228355336934328 -0.4647729098796844
vn 0.8250676989555359 1.971402877936482e-16 -0.5650338530540466
vn 0.8250676989555359 1.971402877936482e-16 -0.5650338530540466
f 21/21/21 18/18/18 17/17/17
f 22/22/22 19/19/19 18/18/18 21/21/21
f 24/24/24 21/21/21 20/20/20
f 25/25/25 22/22/22 21/21/21 24/24/24
f 27/27/27 24/24/24 23/23/23
f 28/28/28 25/25/25 24/24/24 27/27/27
f 29/29/29 27/27/27 26/26/26
f 30/30/30 28/28/28 27/27/27 29/29/29
g object_4
usemtl Default
v -12.4425163269043 19.27264404296875 0
v -12.4425163269043 1.81416642665863 -0.4751507937908173
v -12.4425163269043 -15.64431095123291 -0.9503015875816345
v -12.4425163269043 19.27264404296875 0
v -12.70818710327148 2.250850200653076 -0.006263201124966145
v -12.97385883331299 -14.7709436416626 -0.01252640224993229
v -12.4425163269043 19.27264404296875 0
v -12.97385883331299 2.693021059036255 0.5442599654197693
v -13.50520133972168 -13.88660144805908 1.088519930839539
v -12.4425163269043 19.27264404296875 0
v -13.23952960968018 3.137871503829956 1.091801047325134
v -14.03654384613037 -12.99690055847168 2.183602094650269
v -13.50520133972168 3.582594156265259 1.551742434501648
v -14.56788539886475 -12.10745525360107 3.103484869003296
vt 0 0
vt 0 0.5
vt 0 1
vt 0.25 0
vt 0.25 0.5
vt 0.25 1
vt 0.5 0
vt 0.5 0.5
vt 0.5 1
vt 0.75 0
vt 0.75 0.5
vt 0.75 1
vt 1 0.5
vt 1 1
vn 0.8250676989555359 -0.01537229772657156 0.5648247599601746
vn 0.8250676989555359 -0.01537229772657156 0.5648247599601746
vn 0.8250676989555359 -0.01537229772657156 0.5648247599601746
vn 0.8869626522064209 -0.0140133136883378 0.4616284966468811
vn 0.8869626522064209 -0.0140133136883378 0.4616284966468811
vn 0.8869626522064209 -0.0140133136883378 0.4616284966468811
vn 0.8998425006866455 -0.01452638022601604 0.4359729886054993
vn 0.8998425006866455 -0.01452638022601604 0.4359729886054993
vn 0.8998425006866455 -0.01452638022601604 0.4359729886054993
vn 0.8853447437286377 -0.01228355336934328 0.4647729098796844
vn 0.8853447437286377 -0.01228355336934328 0.4647729098796844
vn 0.8853447437286377 -0.01228355336934328 0.4647729098796844
vn 0.8250676989555359 -5.999922147673374e-17 0.5650338530540466
vn 0.8250676989555359 -5.999922147673374e-17 0.5650338530540466
f 35/35/35 32/32/32 31/31/31
f 36/36/36 33/33/33 32/32/32 35/35/35
f 38/38/38 35/35/35 34/34/34
f 39/39/39 36/36/36 35/35/35 38/38/38
f 41/41/41 38/38/38 37/37/37
f 42/42/42 39/39/39 38/38/38 41/41/41
f 43/43/43 41/41/41 40/40/40
f 44/44/44 42/42/42 41/41/41 43/43/43